<?xml version="1.0" standalone="no"?>
<!DOCTYPE svg PUBLIC "-//W3C//DTD SVG 1.1//EN" "http://www.w3.org/Graphics/SVG/1.1/DTD/svg11.dtd" >
<svg xmlns="http://www.w3.org/2000/svg" xmlns:xlink="http://www.w3.org/1999/xlink" version="1.1">
<metadata></metadata>
<defs>
<font id="yanone_kaffeesatzlight" horiz-adv-x="432" >
<font-face units-per-em="1000" ascent="800" descent="-200" />
<missing-glyph horiz-adv-x="172" />
<glyph horiz-adv-x="0" />
<glyph horiz-adv-x="333" />
<glyph unicode="&#xd;" horiz-adv-x="172" />
<glyph unicode=" "  horiz-adv-x="172" />
<glyph unicode="&#x09;" horiz-adv-x="172" />
<glyph unicode="&#xa0;" horiz-adv-x="172" />
<glyph unicode="!" horiz-adv-x="189" d="M68 191l-7 500q0 10 14 13t57 3l-9 -491q-1 -16 -12 -20.5t-43 -4.5zM51 40q0 19 11.5 32t31.5 13q22 0 33 -12.5t11 -32.5t-12 -32.5t-32 -12.5q-43 0 -43 45z" />
<glyph unicode="&#x22;" horiz-adv-x="243" d="M76 585l-31 -1q-3 16 -7.5 103.5t0.5 95.5q13 6 54 1q1 -39 -5 -117t-11 -82zM191 585l-31 -1q-3 16 -7.5 103.5t0.5 95.5q13 6 54 1q1 -39 -5 -117t-11 -82z" />
<glyph unicode="#" d="M323 369l-6 -124h78q0 -31 -2 -38.5t-12 -7.5h-67l-4 -79q-1 -9 -10.5 -11t-40.5 -2l5 92h-113l-4 -79q-1 -9 -10 -11t-40 -2l5 92h-64q0 46 13 46h53l7 124h-73q0 46 13 46h62l4 72q1 9 10 11t40 2l-4 -85h112l4 72q1 9 10 11t41 2l-4 -85h69q0 -31 -2 -38.5t-12 -7.5 h-58zM154 245h112l7 124h-113z" />
<glyph unicode="$" d="M179 408l123 -114q65 -62 65 -140q0 -141 -132 -158v-94q0 -14 -10.5 -19t-38.5 -5v115q-39 1 -68 9t-40.5 17t-11.5 16q0 6 5.5 21t12.5 22q37 -31 111 -31q114 0 114 108q0 32 -15 59t-52 63l-112 105q-62 60 -62 115q0 50 35 81.5t98 37.5v96q0 15 11 20t39 5v-121 q34 -1 60.5 -8.5t36.5 -14t10 -9.5q0 -25 -16 -40q-34 23 -104 23q-111 0 -111 -71q0 -38 52 -88z" />
<glyph unicode="%" horiz-adv-x="712" d="M61 524q0 184 141 184q69 0 101 -40t32 -143q0 -185 -138 -185q-35 0 -58 7t-42 26t-27.5 56t-8.5 95zM125 14l421 694q32 -9 32 -25q0 -3 -104.5 -175.5t-209.5 -343.5l-105 -172q-34 7 -34 22zM114 520q0 -79 19.5 -107.5t62.5 -28.5q87 0 87 141q0 80 -19.5 109 t-61.5 29q-88 0 -88 -143zM377 176q0 184 141 184q69 0 101 -40t32 -143q0 -185 -138 -185q-35 0 -58 7t-42 26t-27.5 56t-8.5 95zM429 171q0 -79 20 -107.5t63 -28.5q87 0 87 141q0 80 -19.5 109t-61.5 29q-89 0 -89 -143z" />
<glyph unicode="&#x26;" horiz-adv-x="513" d="M452 456h-72q55 -64 55 -183q0 -94 -29 -160q56 -61 84 -78q-2 -14 -13 -29t-22 -15q-14 0 -79 70q-55 -71 -157 -71q-183 0 -183 182q0 59 33 108t82 77q-82 137 -82 211q0 71 45.5 104.5t121.5 33.5q61 0 102.5 -14t41.5 -30q0 -24 -13 -39q-50 34 -126 34 q-53 0 -83.5 -20t-30.5 -76q0 -59 73 -175.5t165 -225.5q17 51 17 121q0 75 -23.5 131t-60.5 85q39 6 105 6q62 0 88 -2q2 -6 2 -22q0 -13 -8 -18.5t-33 -4.5zM216 42q80 0 122 61q-96 113 -161 213q-84 -48 -84 -147q0 -53 28 -90t95 -37z" />
<glyph unicode="'" horiz-adv-x="128" d="M76 585l-31 -1q-3 16 -7.5 103.5t0.5 95.5q13 6 54 1q1 -39 -5 -117t-11 -82z" />
<glyph unicode="(" horiz-adv-x="294" d="M125 324q0 -169 47.5 -296.5t98.5 -185.5q-9 -40 -31 -40q-6 0 -24 20.5t-43.5 64.5t-48.5 102.5t-39 147t-16 185.5q0 92 17 175.5t40.5 137t49 94t43 58.5t22.5 18q21 0 30 -36q-145 -173 -146 -445z" />
<glyph unicode=")" horiz-adv-x="294" d="M169 324q-1 154 -45 267t-101 178q9 36 30 36q5 0 22 -17.5t42.5 -57.5t49.5 -93.5t40.5 -137.5t16.5 -177q0 -94 -16 -181.5t-39 -146.5t-48 -104t-43 -66.5t-24 -21.5q-22 0 -31 40q22 28 44 66.5t46.5 98t40 143t15.5 174.5z" />
<glyph unicode="*" horiz-adv-x="472" d="M265 676l-15 -165q-2 -17 -27 -12l-16 171q-1 13 19.5 14.5t38.5 -8.5zM61 561l140 -77q1 -13 -4 -19t-14 -2l-162 50q-1 23 13.5 38.5t26.5 9.5zM277 491l156 74q15 -11 18.5 -32.5t-10.5 -25.5l-166 -48q-17 22 2 32zM335 250l-87 162q-4 8 -0.5 13t17.5 10l112 -144 q9 -12 -6 -25t-36 -16zM75 294l119 133q13 13 28 -6l-97 -156q-12 -12 -27 -1t-23 30z" />
<glyph unicode="+" d="M242 307h150q0 -31 -2 -40.5t-12 -9.5h-136v-137q0 -9 -9 -11t-41 -2v150h-150v24t1.5 14.5t4 9.5t7.5 2h137v136q0 10 9.5 12t40.5 2v-150z" />
<glyph unicode="," horiz-adv-x="180" d="M55 43q0 18 11 29.5t28 11.5q41 0 41 -47q0 -44 -26 -94.5t-41 -50.5q-18 0 -23 18q28 48 30 93q-20 12 -20 40z" />
<glyph unicode="-" horiz-adv-x="290" d="M233 257h-190v24t1.5 14.5t4 9.5t7.5 2h191q0 -31 -2 -40.5t-12 -9.5z" />
<glyph unicode="." horiz-adv-x="180" d="M49 40q0 19 11.5 32t30.5 13q44 0 44 -45q0 -19 -12 -32t-32 -13q-42 0 -42 45z" />
<glyph unicode="/" horiz-adv-x="307" d="M297 765l-225 -770q-4 -11 -13.5 -13t-48.5 -2l226 768q4 12 13 14.5t48 2.5z" />
<glyph unicode="0" d="M36 296q0 152 44 228t141 76q95 0 135 -70t40 -221q0 -161 -42 -239t-140 -78q-96 0 -137 73t-41 231zM95 289q0 -132 28 -189.5t91 -57.5q67 0 96 65.5t29 204.5q0 124 -25.5 181t-89.5 57q-69 0 -99 -65.5t-30 -195.5z" />
<glyph unicode="1" d="M194 52l14 491l-130 -24q-8 11 -8 40q0 6 81.5 24t97.5 18q8 0 16 -4l-12 -545h88l55 3q0 -55 -9 -55h-350q-1 9 -1 41q0 11 158 11z" />
<glyph unicode="2" d="M386 0h-346q-4 8 -4 21q0 6 0.5 10.5t3 10t4.5 8.5t7.5 12t8.5 14q28 46 77 103t85.5 96.5t64.5 91t28 98.5q0 40 -20 61t-71 21q-101 0 -159 -39q-7 18 -7 42q0 9 21 20.5t63 20.5t90 9q83 0 113.5 -31.5t30.5 -99.5q0 -54 -29 -110t-66 -97.5t-89.5 -102t-82.5 -107.5 h185l102 4q0 -56 -10 -56z" />
<glyph unicode="3" d="M161 268v37q140 78 140 167q0 75 -89 75q-96 0 -155 -40q-6 14 -6 41q0 11 19.5 23t60.5 20.5t92 8.5q139 0 139 -116q0 -97 -120 -181q63 -6 103 -41.5t40 -108.5q0 -115 -62 -184t-163 -69q-53 0 -82 14t-29 30q0 20 7 43q40 -34 106 -34q74 0 119 56.5t45 143.5 q0 28 -9.5 49t-24 33t-37 19.5t-44 10t-50.5 3.5z" />
<glyph unicode="4" d="M313 597v-391l86 2l2 -21q0 -33 -18 -33h-70v-134q0 -15 -6.5 -17.5t-48.5 -2.5v154h-205q-15 15 -15 43q0 50 76 192.5t146 205.5q10 9 26 9q20 0 27 -7zM88 206h170l9 323q-52 -57 -106 -150t-73 -173z" />
<glyph unicode="5" d="M76 600h306q0 -33 -5 -41.5t-26 -8.5l-227 2l-19 -173q28 7 70 7q36 1 68 -5.5t67 -25t56 -60t21 -101.5q0 -294 -231 -294q-37 0 -65 7.5t-40 16.5t-12 16q0 25 7 46q37 -34 108 -34q92 0 133.5 64.5t41.5 170.5q0 152 -176 152q-18 0 -37.5 -2.5t-31 -5t-23.5 -5.5 t-13 -3z" />
<glyph unicode="6" d="M247 438q69 0 110 -48t41 -146q0 -253 -190 -253q-43 0 -74 15t-49.5 39.5t-29 65.5t-14 83.5t-3.5 102.5q0 109 18 189t50 126t72.5 67.5t89.5 21.5q109 0 109 -30q0 -21 -5 -39q-43 17 -104 17q-75 0 -123 -75.5t-54 -226.5q49 91 156 91zM210 42q64 0 99 51.5 t35 137.5q0 155 -112 155q-88 0 -141 -99q-2 -121 24 -183t95 -62z" />
<glyph unicode="7" d="M52 600h360q-213 -350 -272 -685q-56 0 -56 14q35 182 105 351t141 271q-40 -2 -261 -2q-17 0 -17 51z" />
<glyph unicode="8" d="M335 327q65 -60 65 -146q0 -87 -44.5 -138t-129.5 -51q-94 0 -140 51.5t-46 137.5q0 64 36 116.5t91 80.5q-40 21 -65 43q-55 41 -55 116q0 82 49 125.5t123 43.5q174 0 174 -161q0 -101 -120 -173q40 -25 62 -45zM101 540q0 -60 55 -98q14 -11 68 -42q117 57 117 143 q0 62 -34.5 86.5t-82.5 24.5q-53 0 -88 -28.5t-35 -85.5zM223 44q58 0 91 37.5t33 99.5q0 69 -59 120q-28 25 -69 47q-54 -21 -90.5 -65t-36.5 -99q0 -63 34 -101.5t97 -38.5z" />
<glyph unicode="9" d="M226 610q102 0 135 -67.5t35 -237.5q-1 -208 -63 -308t-189 -100q-84 0 -84 24q0 23 4 37q33 -9 75 -9q187 0 203 301q-50 -91 -152 -91q-68 0 -111 50.5t-43 146.5q0 254 190 254zM205 211q83 0 139 99v2q0 60 -4 100t-15.5 76t-36 53.5t-61.5 17.5q-137 0 -137 -194 q0 -77 30.5 -115.5t84.5 -38.5z" />
<glyph unicode=":" horiz-adv-x="180" d="M49 386q0 19 11.5 32t30.5 13q44 0 44 -45q0 -19 -12 -32t-32 -13q-42 0 -42 45zM49 40q0 19 11.5 32t30.5 13q44 0 44 -45q0 -19 -12 -32t-32 -13q-42 0 -42 45z" />
<glyph unicode=";" horiz-adv-x="180" d="M50 386q0 19 11.5 32t30.5 13q44 0 44 -45q0 -19 -12 -32t-32 -13q-42 0 -42 45zM52 43q0 18 11 29.5t29 11.5q41 0 41 -47q0 -44 -26.5 -94.5t-41.5 -50.5q-19 0 -23 18q28 46 30 93q-20 12 -20 40z" />
<glyph unicode="&#x3c;" horiz-adv-x="400" d="M340 368l-224 -110l238 -104q-1 -19 -9 -31.5t-17 -12.5q-4 0 -23 7l-251 110q-10 14 -10 33q0 21 19 31l268 131q19 -18 19 -37q0 -13 -10 -17z" />
<glyph unicode="=" d="M378 344h-336v24t1.5 14.5t4 9.5t7.5 2h337q0 -32 -2 -41t-12 -9zM378 170h-336v24t1.5 14.5t4 9.5t7.5 2h337q0 -32 -2 -41t-12 -9z" />
<glyph unicode="&#x3e;" horiz-adv-x="400" d="M61 158l224 110l-237 104q0 18 8 31t17 13q5 0 24 -7l251 -110q9 -15 9 -33q0 -22 -19 -31l-268 -132q-19 19 -19 37q0 14 10 18z" />
<glyph unicode="?" horiz-adv-x="295" d="M143 710q61 0 100.5 -33.5t39.5 -108.5q0 -40 -14 -78t-31 -61.5t-40 -53.5t-32 -47q-16 -27 -18 -56.5t2.5 -48t2.5 -20.5q-9 -11 -50 -6q-4 8 -8 21.5t-2 52.5t22 74q12 22 43.5 63.5t48.5 76t17 74.5q0 96 -96 96q-58 0 -96 -30q-7 17 -7 44q0 14 37 27.5t81 13.5z M87 40q0 19 11.5 32t30.5 13q44 0 44 -45q0 -19 -12 -32t-32 -13q-42 0 -42 45z" />
<glyph unicode="@" horiz-adv-x="754" d="M507 375l-6 -215q-4 -85 -5 -97q20 -12 42 -12q11 0 23.5 6t28.5 25.5t28.5 50t21 85.5t8.5 126q0 157 -55.5 224t-189.5 67q-145 0 -220 -86.5t-75 -290.5q0 -101 13.5 -173.5t35.5 -115t59 -66.5t75 -31.5t92 -7.5q126 0 234 52q15 -25 15 -42q0 -11 -28.5 -25 t-87.5 -26t-128 -12q-45 0 -77 3t-69.5 14t-63 30t-51 52.5t-40.5 81t-24.5 116t-9.5 156.5q0 219 93 320t258 101q153 0 226 -78t73 -253q0 -94 -13 -163t-30.5 -104t-42 -55.5t-41 -25t-33.5 -4.5q-39 0 -63 26q-36 -27 -111 -27q-62 -1 -95 29.5t-31 121.5q2 89 42 124.5 t108 35.5q40 0 61 -8q1 37 2 63q1 45 -19 61.5t-61 16.5q-65 0 -107 -24q-6 12 -6 31q0 11 9 17q37 24 122 24q59 0 87 -27t26 -91zM447 88l6 179q-22 5 -49 5q-51 0 -79.5 -27t-29.5 -95q-2 -63 18.5 -84.5t61.5 -21.5q27 0 49 12t23 32z" />
<glyph unicode="A" horiz-adv-x="436" d="M239 701l189 -688q2 -8 -3 -11t-20 -3q-19 0 -33 1l-50 193h-207l-47 -182q-2 -12 -27 -12q-20 0 -34 2l189 694q2 9 19 9q15 0 24 -3zM128 244h180l-48 185q-38 148 -42 196q-7 -62 -43 -196z" />
<glyph unicode="B" horiz-adv-x="392" d="M55 0v683q0 17 25 17h100q167 0 167 -152q0 -79 -30 -117.5t-68 -44.5q19 -1 37 -7.5t38 -21t32.5 -45t12.5 -73.5q0 -57 -13 -101t-32.5 -69.5t-46.5 -41.5t-51 -21.5t-49 -5.5h-122zM110 651v-246h75q103 0 103 133q0 113 -107 113h-71zM110 357v-307h67q56 0 92.5 43 t36.5 141q0 42 -9 67.5t-29 37t-39.5 15t-51.5 3.5h-67z" />
<glyph unicode="C" horiz-adv-x="354" d="M232 711q45 0 69 -16t24 -34q0 -21 -10 -34q-35 31 -75 31q-24 0 -42.5 -6.5t-38.5 -27.5t-33 -57t-21.5 -100t-8.5 -151q0 -82 9.5 -137.5t27.5 -82.5t37 -37t45 -10q31 0 60.5 13.5t43.5 30.5q9 -20 9 -35q0 -25 -36.5 -47t-87.5 -22q-29 0 -49 5t-44 24t-38.5 53 t-24.5 96.5t-10 149.5q0 73 6.5 132.5t16.5 100t25.5 70.5t32 47t37 27.5t38 13.5t38.5 3z" />
<glyph unicode="D" horiz-adv-x="410" d="M81 700h100q99 0 146.5 -72t47.5 -241q0 -114 -14.5 -192.5t-42.5 -119.5t-61.5 -58t-79.5 -17h-121v683q0 17 25 17zM111 53h67q23 0 41 6.5t37 27.5t31 57t20 98.5t8 148.5q0 140 -32 199t-103 59h-69v-596z" />
<glyph unicode="E" horiz-adv-x="337" d="M111 357v-306h197q0 -36 -1.5 -43.5t-10.5 -7.5h-239v686q0 14 13 14h239q0 -51 -10 -51h-188v-241h176q0 -34 -1.5 -42.5t-10.5 -8.5h-164z" />
<glyph unicode="F" horiz-adv-x="327" d="M70 700h239q0 -49 -10 -49h-188v-242h176q0 -35 -1.5 -43.5t-10.5 -8.5h-164v-344q1 -13 -12 -13h-42v686q0 14 13 14z" />
<glyph unicode="G" horiz-adv-x="399" d="M360 398v-352q-49 -56 -135 -56q-38 0 -65.5 8t-51.5 30.5t-38.5 61.5t-23 101t-8.5 148q0 90 10 156t27.5 107t44.5 65.5t57.5 33.5t70.5 9q45 0 75.5 -13.5t30.5 -32.5q0 -14 -9 -34q-34 27 -86 27q-55 0 -89 -25.5t-54 -96.5t-20 -193q0 -96 9.5 -158t28.5 -91t40 -39 t53 -10t53.5 12.5t27.5 25.5v269h-97v34q0 13 15 13h134z" />
<glyph unicode="H" d="M322 407v279q0 10 7 12t48 2v-687q0 -10 -7 -11.5t-48 -1.5v355h-212v-342q0 -10 -7 -11.5t-48 -1.5v686q0 10 7 12t48 2v-293h212z" />
<glyph unicode="I" horiz-adv-x="165" d="M55 0v672q0 21 7 24.5t48 3.5v-687q0 -10 -7 -11.5t-48 -1.5z" />
<glyph unicode="J" horiz-adv-x="298" d="M188 184v489q0 20 7 23.5t49 3.5v-532q0 -38 -4.5 -66t-17 -55.5t-39 -42t-65.5 -14.5q-48 0 -74.5 16t-26.5 37q0 16 11 34q34 -36 83 -36q26 0 42.5 10t23.5 32.5t9 43.5t2 57z" />
<glyph unicode="K" horiz-adv-x="391" d="M366 681l-201 -286q134 -86 203 -379q2 -10 -2.5 -13.5t-18.5 -3.5q-24 0 -36 1q-40 136 -75 210t-78 117q-19 20 -49 32v-346q0 -10 -7 -11.5t-48 -1.5v686q0 10 7 12t48 2v-304l201 301q13 3 35 3q33 0 21 -19z" />
<glyph unicode="L" horiz-adv-x="327" d="M111 700v-648h198v-39q0 -13 -14 -13h-240v680q0 15 7 17.5t49 2.5z" />
<glyph unicode="M" horiz-adv-x="498" d="M283 346l105 340q5 14 14 14h42v-687q0 -10 -7 -11.5t-47 -1.5v289q1 49 9 283q-66 -226 -75 -251l-58 -170q-3 -9 -11 -9h-26l-56 179q-2 5 -15 49t-31 104t-29 95q1 -27 5.5 -141t5.5 -132v-283q0 -10 -7.5 -11.5t-46.5 -1.5v686q0 14 13 14h37l109 -351l35 -120 q28 96 34 117z" />
<glyph unicode="N" horiz-adv-x="456" d="M346 449v237q0 10 7 12t48 2v-687q0 -13 -13 -13h-38l-123 281q-63 165 -122 314q4 -148 4 -337v-245q0 -10 -6.5 -11.5t-47.5 -1.5v686q0 14 13 14h39l120 -276q10 -26 124 -316q-5 103 -5 341z" />
<glyph unicode="O" horiz-adv-x="446" d="M38 355q0 191 46.5 273t145.5 82q98 0 138 -78t40 -276q0 -200 -44.5 -283t-144.5 -83q-99 0 -140 79t-41 286zM99 338q0 -159 27.5 -225t94.5 -66q69 0 98.5 70.5t29.5 239.5q0 165 -27 231t-94 66t-98 -72.5t-31 -243.5z" />
<glyph unicode="P" horiz-adv-x="370" d="M68 700h104q175 0 175 -190q0 -109 -48 -161.5t-131 -52.5h-59v-283q0 -10 -6.5 -11.5t-47.5 -1.5v686q0 14 13 14zM109 348h63q115 0 115 166q0 136 -110 136h-68v-302z" />
<glyph unicode="Q" horiz-adv-x="446" d="M329 -87q37 0 65 17q9 -12 9 -30q0 -16 -26.5 -25t-57.5 -9q-44 0 -70.5 29t-41.5 95q-61 3 -97 37t-54 112.5t-18 215.5q0 191 46.5 273t145.5 82q98 0 138 -78t40 -276q0 -173 -33 -258t-106 -102q8 -47 21.5 -65t38.5 -18zM99 338q0 -159 27.5 -225t94.5 -66 q69 0 98.5 70.5t29.5 239.5q0 165 -27 231t-94 66t-98 -72.5t-31 -243.5z" />
<glyph unicode="R" horiz-adv-x="378" d="M96 700h76q175 0 175 -190q0 -159 -103 -200q86 -118 101 -295q1 -9 -4 -12t-23 -4q-18 0 -31 1q-20 199 -97 297q-7 -1 -22 -1h-59v-283q0 -10 -6.5 -11.5t-47.5 -1.5v686q0 14 13 14h28zM109 348h63q115 0 115 164q0 138 -110 138h-68v-302z" />
<glyph unicode="S" horiz-adv-x="369" d="M211 320l-108 113q-68 76 -68 142q0 60 44.5 97.5t123.5 37.5q62 0 94 -13t32 -31t-15 -33q-36 27 -107 27q-52 0 -83 -23t-31 -61q0 -46 55 -108l119 -123q41 -44 56.5 -82.5t15.5 -89.5q0 -84 -42 -133.5t-132 -49.5q-63 0 -97.5 17t-34.5 36q0 23 16 39 q38 -36 112 -36q120 0 120 122q0 42 -15.5 76t-54.5 76z" />
<glyph unicode="T" horiz-adv-x="367" d="M20 700h340v-39q0 -13 -13 -13h-138v-635q0 -10 -7 -11.5t-48 -1.5v648h-147v38q0 14 13 14z" />
<glyph unicode="U" horiz-adv-x="458" d="M111 700v-487q0 -32 2 -54.5t9.5 -46t21 -38t36.5 -23.5t56 -9q70 0 112 21v624q0 10 7.5 11.5t48.5 1.5v-675q-21 -14 -68.5 -24.5t-99.5 -10.5q-48 0 -82 12.5t-53 31.5t-29.5 50.5t-13.5 60.5t-3 70v471q0 10 7 12t49 2z" />
<glyph unicode="V" horiz-adv-x="421" d="M416 700l-171 -706q-36 -3 -43 -3q-21 0 -36 59l-159 631q-3 10 -1 14.5t12 4.5h44l111 -438q16 -70 42 -212q23 139 39 212l101 418q3 20 16 20h45z" />
<glyph unicode="W" horiz-adv-x="643" d="M594 700h45l-141 -706q-24 -3 -43 -3q-18 0 -30 51l-75 324q-10 53 -30 191q-3 -18 -9 -62.5t-11 -78.5t-8 -49l-78 -373q-26 -2 -46 -2q-17 0 -30 60l-132 629q-3 19 12 19h44l92 -439q16 -88 30 -194h4q6 79 27 194l77 383q3 19 16 19h39l88 -402q8 -37 13 -68.5 t10 -69.5t7 -55h4q14 125 27 193l82 419q3 20 16 20z" />
<glyph unicode="X" horiz-adv-x="426" d="M252 363l162 -352q5 -11 -8 -11h-57l-68 150q-34 77 -70 166q-38 -93 -71 -165l-68 -144q-4 -7 -14 -7h-48l169 363l-142 327q-3 8 6 9q8 1 57 1l51 -121q43 -101 68 -169q39 100 68 169l48 111q3 8 10 9t52 1z" />
<glyph unicode="Y" horiz-adv-x="361" d="M210 286v-273q0 -10 -6.5 -11.5t-48.5 -1.5v284l-149 407q-2 7 6 8t56 1l48 -143q20 -54 43 -132t25 -91q1 12 24 87.5t44 136.5l44 132q2 7 10 8.5t50 1.5z" />
<glyph unicode="Z" horiz-adv-x="393" d="M46 648v38q0 14 14 14h298q6 -8 6 -19q0 -13 -6 -28l-272 -603h225q37 0 53 6v-43q0 -13 -13 -13h-317q-9 7 -9 22q0 10 5 27l269 601h-212q-31 0 -41 -2z" />
<glyph unicode="[" horiz-adv-x="415" d="M192 821h213q0 -34 -3.5 -42t-19.5 -8h-178v-917h200q0 -36 -4.5 -44t-19.5 -8h-231v999q0 13 7 16.5t36 3.5z" />
<glyph unicode="\" horiz-adv-x="303" d="M64 765l228 -780q3 -11 -5.5 -13t-47.5 -2l-228 778q-3 12 5.5 14.5t47.5 2.5z" />
<glyph unicode="]" horiz-adv-x="415" d="M222 -200h-212q0 34 3.5 42t19.5 8h178v920h-200q0 36 4.5 44t19.5 8h231v-1002q0 -13 -7.5 -16.5t-36.5 -3.5z" />
<glyph unicode="^" horiz-adv-x="430" d="M213 316l-108 -93q-15 -11 -22 -11q-11 0 -18 8.5t-8 20.5l161 146l142 -130q10 -9 10 -18q0 -11 -8 -19t-20 -9z" />
<glyph unicode="_" horiz-adv-x="383" d="M353 -94h-337q0 32 2 41t12 9h336v-24t-1.5 -14.5t-4 -9.5t-7.5 -2z" />
<glyph unicode="`" horiz-adv-x="162" d="M141 583q-3 0 -68.5 49.5t-72.5 56.5q2 13 9.5 28t16.5 15q3 0 65.5 -53t70.5 -64q-11 -32 -21 -32z" />
<glyph unicode="a" horiz-adv-x="367" d="M321 389v-60q0 -173 -5 -303q-59 -36 -136 -36q-25 0 -43 2t-38.5 10.5t-33 24.5t-21 44t-8.5 68q0 51 12 85t35 50t46.5 22t55.5 6q53 0 82 -12v88q0 46 -20 62.5t-59 16.5q-88 0 -144 -25q-8 16 -8 32q0 14 8 20q16 10 61 18t96 8q62 0 91 -27.5t29 -93.5zM267 249 q-27 10 -65 10q-52 0 -80.5 -23t-28.5 -95q0 -34 7 -56t22 -31.5t29 -12.5t37 -3q50 0 74 22q5 70 5 189z" />
<glyph unicode="b" horiz-adv-x="402" d="M58 20v688q0 19 9.5 23t45.5 4v-266q51 41 124 41q64 -1 97.5 -45t33.5 -147q0 -84 -13 -146t-32 -96t-46.5 -54.5t-51 -26t-52.5 -5.5q-77 0 -115 30zM113 420v-362q20 -18 67 -18q128 0 128 263q0 87 -22.5 121.5t-72.5 34.5q-61 0 -100 -39z" />
<glyph unicode="c" horiz-adv-x="331" d="M304 470q0 -17 -8 -33q-33 23 -77 23q-24 0 -43 -7.5t-38.5 -28.5t-30.5 -68.5t-11 -119.5q0 -115 26.5 -155.5t82.5 -40.5t92 30q7 -21 7 -32q0 -18 -33 -33t-82 -15q-37 0 -61.5 9t-46 34.5t-32 76.5t-10.5 129q0 69 11.5 120t28.5 79.5t42.5 45t48 21.5t50.5 5 q34 0 59 -12t25 -28z" />
<glyph unicode="d" horiz-adv-x="400" d="M288 488v220q0 19 10 23t46 4v-715q-58 -30 -142 -30q-38 0 -63.5 8t-50 31.5t-37 75t-12.5 131.5q0 137 47 205.5t120 68.5q51 0 82 -22zM288 60v381q-25 20 -66 20q-54 0 -88.5 -52.5t-34.5 -167.5q0 -85 15 -130.5t36 -57.5t57 -13q51 0 81 20z" />
<glyph unicode="e" horiz-adv-x="374" d="M210 44q72 0 121 34q6 -20 6 -39q0 -18 -41 -33.5t-94 -15.5q-39 0 -66 8.5t-51 32t-35.5 71.5t-11.5 121q0 74 11 128t27.5 84t41.5 47.5t47 22.5t51 5q126 0 126 -158q0 -70 -9 -120q-102 -20 -239 -17q1 -103 29 -137t87 -34zM212 460q-17 0 -31 -3.5t-30 -16 t-27 -33.5t-19 -58t-10 -88q126 -3 189 13q4 32 4 67q-1 63 -17 91t-59 28z" />
<glyph unicode="f" horiz-adv-x="248" d="M91 452h-76q0 34 2 41t13 7h61v63q0 45 10.5 78t26 51t38.5 29.5t43 14.5t45 3q86 0 86 -31q0 -11 -6 -31q-33 12 -74 12q-24 0 -41.5 -4t-35.5 -15.5t-27.5 -38t-9.5 -66.5v-65h104q0 -34 -2 -41t-12 -7h-90v-439q0 -13 -14 -13h-41v452z" />
<glyph unicode="g" horiz-adv-x="403" d="M259 504h124q6 -15 6 -26q0 -22 -23 -22q-15 0 -55 6q56 -35 56 -124q0 -83 -39.5 -133.5t-122.5 -50.5q-35 0 -57 7q-42 -36 -42 -57q0 -23 145 -41q65 -9 99.5 -32.5t34.5 -77.5q0 -63 -50 -106.5t-144 -43.5q-91 0 -124.5 29.5t-33.5 77.5q0 34 23.5 68t59.5 58 q-33 9 -50.5 22t-16.5 30q0 40 63 88q-63 40 -63 153q0 90 45.5 135.5t119.5 45.5q21 0 45 -6zM212 467q-47 0 -76.5 -34.5t-29.5 -102.5q0 -64 21 -97.5t82 -33.5q51 0 77 41.5t26 108.5q0 118 -100 118zM196 -146q63 0 98 28t35 65q0 38 -26 52t-86 20q-38 4 -56 7 q-29 -20 -50.5 -50t-21.5 -56q0 -32 22 -49t85 -17z" />
<glyph unicode="h" horiz-adv-x="396" d="M54 0v708q0 19 9.5 23t45.5 4v-268q54 43 127 43q67 0 91 -33t24 -101v-363q0 -10 -7.5 -11.5t-48.5 -1.5v364q0 46 -17 70t-63 24q-63 0 -106 -40v-405q0 -10 -7 -11.5t-48 -1.5z" />
<glyph unicode="i" horiz-adv-x="171" d="M55 669q0 46 33 46q31 0 31 -45q-2 -47 -34 -47q-31 0 -30 46zM114 500v-487q0 -10 -7.5 -11.5t-49.5 -1.5v473q0 19 10.5 23t46.5 4z" />
<glyph unicode="j" horiz-adv-x="182" d="M62 669q0 46 33 46q31 0 31 -45q-2 -47 -34 -47q-31 0 -30 46zM119 500v-537q0 -76 -26 -117t-97 -41q-51 0 -80 13.5t-29 32.5t9 31q43 -26 96 -26q45 0 58.5 26.5t13.5 91.5v499q0 19 9.5 23t45.5 4z" />
<glyph unicode="k" horiz-adv-x="389" d="M57 0v708q0 19 9.5 23t45.5 4v-286q29 29 68.5 45t72.5 16q88 0 88 -88q0 -31 -12 -59.5t-31.5 -48t-33.5 -30.5t-28 -19q40 -7 76 -45t46 -107q6 -42 0 -99q-2 -10 -9.5 -12t-52.5 -2q11 82 -5 141q-16 56 -51.5 76.5t-68.5 12.5l-59 -22v-195q0 -10 -6.5 -11.5 t-48.5 -1.5zM112 395v-144q169 58 169 157q0 51 -51 51q-64 0 -118 -64z" />
<glyph unicode="l" horiz-adv-x="170" d="M112 735v-722q0 -10 -7 -11.5t-48 -1.5v708q0 19 9.5 23t45.5 4z" />
<glyph unicode="m" horiz-adv-x="592" d="M57 0v477q75 33 148 33q69 0 96 -36q56 36 127 36q69 0 90.5 -33.5t21.5 -111.5v-352q0 -10 -7 -11.5t-48 -1.5v368q0 52 -13 72t-53 20q-51 0 -92 -27v-420q0 -10 -7 -11.5t-47 -1.5h-1v370q0 53 -11 72t-57 19q-45 0 -92 -22v-426q0 -10 -7.5 -11.5t-47.5 -1.5z" />
<glyph unicode="n" horiz-adv-x="401" d="M55 0v475q81 35 162 35q78 0 107.5 -32t29.5 -105v-360q0 -10 -7 -11.5t-49 -1.5v358q0 57 -16.5 80t-66.5 23q-62 0 -105 -23v-425q0 -10 -7 -11.5t-48 -1.5z" />
<glyph unicode="o" horiz-adv-x="387" d="M33 249q0 261 167 261q81 0 117.5 -56t36.5 -204q0 -260 -165 -260q-41 0 -66.5 9t-47.5 35.5t-32 79t-10 135.5zM92 245q0 -123 23.5 -165t75.5 -42q105 0 105 214q0 122 -23.5 165.5t-74.5 43.5q-52 0 -79 -48.5t-27 -167.5z" />
<glyph unicode="p" horiz-adv-x="399" d="M57 -174v644q65 40 144 40q82 0 123.5 -47t41.5 -164q0 -78 -11 -136t-28 -90t-40 -51.5t-43 -25.5t-42 -6q-62 0 -90 36v-219q-18 -4 -29 -4q-26 0 -26 23zM112 436v-350q27 -46 75 -46q119 3 119 248q0 100 -25.5 136.5t-82.5 36.5q-48 0 -86 -25z" />
<glyph unicode="q" horiz-adv-x="407" d="M350 479v-653q0 -16 -6 -20t-28 -4q-3 0 -10.5 0.5t-11.5 0.5v240q-36 -53 -112 -53q-143 0 -143 231q0 148 54 218.5t148 70.5q65 0 109 -31zM294 103v340q-22 18 -65 18q-130 0 -130 -241q0 -180 103 -180q27 -1 53 15t39 48z" />
<glyph unicode="r" horiz-adv-x="275" d="M55 0v466q65 44 134 44q72 0 72 -35q0 -17 -8 -33q-26 15 -56 15q-49 0 -86 -28v-416q0 -10 -7.5 -11.5t-48.5 -1.5z" />
<glyph unicode="s" horiz-adv-x="368" d="M212 215l-105 76q-39 27 -52.5 51t-13.5 54q0 53 43.5 83.5t119.5 30.5q43 0 74 -9.5t42 -20.5t11 -20q0 -15 -13 -31q-49 32 -109 32q-47 0 -76 -17t-29 -48q0 -37 49 -70l108 -77q68 -56 68 -124q0 -65 -43.5 -100t-120.5 -35q-57 0 -91.5 12.5t-34.5 30.5t12 34 q43 -26 109 -26q108 0 108 77q0 55 -56 97z" />
<glyph unicode="t" horiz-adv-x="298" d="M101 145v306h-74q0 33 2 41t11 8h61v158q0 16 9 19t46 3v-180h121q0 -33 -2 -41t-10 -8h-109v-307q0 -36 2 -55t12.5 -34.5t31.5 -15.5q30 0 65 16q4 -16 4 -29q0 -18 -23.5 -27t-57.5 -9q-30 0 -48.5 10.5t-27 34t-11 47t-2.5 63.5z" />
<glyph unicode="u" horiz-adv-x="415" d="M357 500v-475q-67 -35 -152 -35t-116 40.5t-31 138.5v317q0 11 7 12.5t49 1.5v-338q0 -71 19.5 -97t76.5 -26q54 0 92 23v424q0 10 7.5 12t47.5 2z" />
<glyph unicode="v" horiz-adv-x="356" d="M142 42l-116 440q-4 13 4 15.5t52 2.5l43 -174q14 -53 28 -119t21 -105l8 -40h1q24 145 53 265l39 159q2 10 9.5 12t47.5 2l-128 -506q-16 -2 -37 -2q-12 0 -25 50z" />
<glyph unicode="w" horiz-adv-x="553" d="M439 318l34 168q2 10 9.5 12t46.5 2q-111 -506 -114 -506q-16 -2 -34 -2q-7 0 -15.5 15t-14.5 40l-16 69q-24 98 -58 280q-20 -137 -54 -281l-27 -121q-29 -2 -43 -2t-24 49l-105 445q-2 10 6 12t52 2l40 -182l47 -249h3q6 36 43 217l35 183q1 14 19 14h36l43 -199 q11 -46 22.5 -99.5t17.5 -84.5l5 -31h4q8 80 42 249z" />
<glyph unicode="x" horiz-adv-x="437" d="M255 266l156 -252q7 -10 -1 -12l-59 -2l-52 80q-35 57 -83 144q-56 -99 -84 -145l-45 -68q-4 -8 -13.5 -9.5t-51.5 -1.5l162 262l-139 228q-3 7 5 9l53 1l51 -80q13 -21 69 -119q20 37 69 121l45 68q4 8 11.5 9t51.5 1z" />
<glyph unicode="y" horiz-adv-x="370" d="M163 -16l-130 499q-3 13 4 15t49 2l75 -294q8 -32 15 -71t10 -62l4 -23q11 82 27 157l67 276q2 13 9.5 15t49.5 2l-132 -531q-22 -89 -54 -125.5t-83 -36.5q-73 0 -73 30q0 18 10 32q26 -13 61 -13q63 0 91 128z" />
<glyph unicode="z" horiz-adv-x="364" d="M52 500h276q6 -6 6 -18q0 -15 -7 -29l-233 -401h116q86 0 121 8q1 -6 1 -26q0 -34 -21 -34h-272q-10 9 -10 28q0 12 6 22l235 402h-121q-73 0 -113 -5q-2 13 -2 27q0 26 18 26z" />
<glyph unicode="{" horiz-adv-x="285" d="M257 744q11 -16 11 -34t-14 -20q-47 -2 -71.5 -21.5t-24.5 -65.5q0 -21 6 -85.5t6 -107.5q0 -85 -59 -109q30 -11 44.5 -31.5t14.5 -62.5q0 -44 -6 -110t-6 -92q0 -63 23 -81.5t80 -23.5q3 -14 3 -21q0 -29 -21 -29q-75 0 -108 31t-33 103q0 34 7 100t7 107 q0 39 -15 56.5t-45 23.5q-4 12 -4 25q0 22 15 30q18 11 26 18t15.5 26.5t7.5 51.5q0 40 -7 107t-7 98q0 117 155 117z" />
<glyph unicode="|" horiz-adv-x="354" d="M204 815v-1000q0 -11 -8 -13t-47 -2v998q0 12 8 14.5t47 2.5z" />
<glyph unicode="}" horiz-adv-x="285" d="M28 -150q-10 13 -10 33q0 18 13 20q48 2 72.5 21.5t24.5 65.5q0 22 -6 86.5t-6 107.5q0 48 15 72t44 37q-29 10 -44 31t-15 63q0 44 6 109.5t6 92.5q0 62 -23 80.5t-81 24.5q-2 16 -2 21q0 29 20 29q75 0 108 -31t33 -103q0 -34 -7 -100.5t-7 -107.5q0 -39 15 -56.5 t45 -23.5q5 -11 5 -24q0 -21 -15 -31q-19 -11 -27 -18t-15.5 -26.5t-7.5 -51.5q0 -39 7 -106.5t7 -98.5q0 -116 -155 -116z" />
<glyph unicode="~" horiz-adv-x="400" d="M12 261q15 23 47 42.5t74 19.5q34 0 72 -24.5t68 -24.5q45 0 78 40q12 10 23.5 1.5t14.5 -27.5q-43 -65 -121 -65q-39 0 -77.5 24.5t-62.5 24.5q-19 0 -35.5 -7t-33 -20t-18.5 -14q-9 -4 -18 5t-11 25z" />
<glyph unicode="&#xa2;" d="M283 638v-129q28 -3 50 -13t22 -19q0 -26 -7 -41q-35 22 -72 22q-26 0 -46 -8t-40.5 -30t-31.5 -71.5t-11 -123.5q0 -63 7 -101t23.5 -55.5t34 -22.5t49.5 -5q46 0 87 31q7 -14 7 -36q0 -13 -29.5 -29t-64.5 -17v-106q0 -14 -10.5 -19t-38.5 -5v132q-41 3 -65 20.5 t-40 69.5t-16 143q0 255 142 281v106q0 15 11.5 20.5t38.5 5.5z" />
<glyph unicode="&#xa3;" horiz-adv-x="383" d="M150 55l183 -4q5 -17 5 -26q0 -25 -55 -25h-186q-7 123 -9 278h-73v24t1.5 14.5t4 9.5t7.5 2h60q1 149 41.5 208t116.5 59q41 0 70.5 -13.5t29.5 -33.5q0 -16 -10 -35q-36 27 -82 27q-35 0 -57.5 -15t-38 -62.5t-15.5 -130.5v-4h147q0 -31 -2 -40.5t-12 -9.5h-133 q2 -151 7 -223z" />
<glyph unicode="&#xa5;" d="M242 288v-62h134q0 -27 -4.5 -36.5t-18.5 -9.5h-111v-167q0 -10 -7 -11.5t-48 -1.5v180h-136q0 27 4.5 36.5t18.5 9.5h113v58l-21 57h-115q0 27 4.5 36.5t18.5 9.5h75l-111 304q-2 7 6 8t56 1l48 -143q21 -58 43.5 -129.5t23.5 -82.5q2 24 67 213l46 132q2 7 10 8.5 t50 1.5l-111 -313h98q0 -27 -4.5 -36.5t-18.5 -9.5h-91z" />
<glyph unicode="&#xa8;" horiz-adv-x="220" d="M0 649q0 17 10.5 29t28.5 12q19 0 29.5 -11.5t10.5 -29.5t-11 -29.5t-29 -11.5q-39 0 -39 41zM141 649q0 17 10.5 29t28.5 12q19 0 29.5 -11.5t10.5 -29.5t-11 -29.5t-29 -11.5q-39 0 -39 41z" />
<glyph unicode="&#xa9;" horiz-adv-x="464" d="M38 540q0 220 200 220q97 0 143 -49.5t46 -169.5q0 -107 -51 -164t-144 -57q-99 0 -146.5 48t-47.5 172zM82 537q0 -96 36 -135t110 -39q71 0 113 45t42 135q0 95 -36 135.5t-108 40.5q-157 0 -157 -182zM291 657q0 -14 -7 -26q-18 10 -33 10q-28 0 -45 -22.5t-17 -91.5 q0 -54 12 -69.5t40 -15.5q19 0 43 13q7 -14 7 -24q0 -7 -17.5 -14.5t-36.5 -7.5q-46 0 -65.5 22t-19.5 97q0 88 26.5 117t67.5 29q14 0 29.5 -6t15.5 -11z" />
<glyph unicode="&#xab;" horiz-adv-x="417" d="M28 255q0 11 37 72.5t75 116.5l37 56q9 0 17.5 -7t11.5 -14l4 -7q0 -12 -32 -66t-64 -102l-33 -49q133 -198 133 -221q-13 -34 -32 -34q-154 227 -154 255zM191 250q0 11 36.5 68.5t73.5 109.5l37 51q9 0 17.5 -6.5t12.5 -13.5l3 -7q0 -12 -31.5 -62.5t-63.5 -95.5 l-32 -44q130 -173 130 -195q-12 -33 -31 -33q-152 202 -152 228z" />
<glyph unicode="&#xad;" horiz-adv-x="290" d="M233 257h-190v24t1.5 14.5t4 9.5t7.5 2h191q0 -31 -2 -40.5t-12 -9.5z" />
<glyph unicode="&#xae;" horiz-adv-x="464" d="M238 760q97 0 143 -49.5t46 -169.5q0 -107 -51 -164t-144 -57q-99 0 -146.5 48t-47.5 172q0 220 200 220zM228 363q71 0 113 45t42 135q0 95 -36 135.5t-108 40.5q-157 0 -157 -182q0 -96 36 -135t110 -39zM190 676h37q83 0 83 -72q0 -54 -41 -73q40 -43 47 -111 q0 -8 -11 -9q-1 0 -10 0.5t-12 0.5q-10 77 -46 110h-12h-22v-102q0 -6 -4.5 -7t-20.5 -1h-6v259q0 5 6 5h12zM203 648v-97h23q51 0 51 53q0 44 -50 44h-24z" />
<glyph unicode="&#xb4;" horiz-adv-x="162" d="M22 578q-5 0 -10.5 8t-8.5 16l-3 8q25 26 58 55t54.5 46t23.5 17q9 0 16.5 -15.5t9.5 -28.5q-6 -8 -54 -44.5t-86 -61.5z" />
<glyph unicode="&#xb8;" horiz-adv-x="125" d="M35 3h36l-13 -63q1 2 18 2q20 0 34.5 -14.5t14.5 -43.5q0 -38 -21 -57.5t-51 -19.5q-13 0 -26 2.5t-20 4.5l-7 3q4 26 10 33q5 2 9.5 0t15 -5.5t19.5 -3.5q34 0 34 36q0 35 -33 35l-39 -6z" />
<glyph unicode="&#xbb;" horiz-adv-x="415" d="M387 255q0 -12 -38.5 -76t-76.5 -121l-39 -58q-4 1 -9 3t-14 10.5t-9 19.5t33 66.5t66 105.5l34 50q-129 190 -129 217q0 9 8.5 16t16.5 10l8 2q149 -220 149 -245zM226 250q0 -12 -38 -69.5t-76 -108.5l-39 -51q-3 1 -8 3t-13.5 10.5t-8.5 19.5t32.5 60t64.5 92l33 44 q1 0 -30.5 44.5t-64 95t-32.5 62.5q0 9 8 16t16 10l7 2q149 -204 149 -230z" />
<glyph unicode="&#x2c6;" horiz-adv-x="241" d="M0 599l111 114q6 2 13 2q12 0 20 -9q97 -98 97 -107q0 -6 -13 -13t-28 -7q-70 73 -77 86q-73 -85 -85 -85q-24 0 -38 19z" />
<glyph unicode="&#x2da;" horiz-adv-x="180" d="M0 664q0 91 94 91q45 0 65.5 -20t20.5 -70q0 -91 -93 -91q-43 0 -65 20.5t-22 69.5zM43 662q0 -48 45 -48q50 0 50 51q0 49 -44 49q-26 0 -38.5 -12t-12.5 -40z" />
<glyph unicode="&#x2dc;" horiz-adv-x="285" d="M0 624q40 68 102 68q23 0 46.5 -25.5t44.5 -25.5q23 0 37.5 11.5t21.5 22.5t11 11q6 0 11.5 -8t7.5 -16l3 -8q-6 -13 -16.5 -26t-33.5 -26.5t-49 -13.5q-32 0 -55.5 26.5t-38.5 26.5q-17 0 -30 -11.5t-21 -22.5t-12 -11q-7 0 -14 7t-11 14z" />
<glyph unicode="&#x401;" horiz-adv-x="337" d="M85 849q0 17 10.5 29t28.5 12q19 0 29.5 -11.5t10.5 -29.5t-11 -29.5t-29 -11.5q-39 0 -39 41zM226 849q0 17 10.5 29t28.5 12q19 0 29.5 -11.5t10.5 -29.5t-11 -29.5t-29 -11.5q-39 0 -39 41zM111 357v-306h197q0 -36 -1.5 -43.5t-10.5 -7.5h-239v686q0 14 13 14h239 q0 -51 -10 -51h-188v-241h176q0 -34 -1.5 -42.5t-10.5 -8.5h-164z" />
<glyph unicode="&#x410;" horiz-adv-x="436" d="M239 701l189 -688q2 -8 -3 -11t-20 -3q-19 0 -33 1l-50 193h-207l-47 -182q-2 -12 -27 -12q-20 0 -34 2l189 694q2 9 19 9q15 0 24 -3zM128 244h180l-48 185q-38 148 -42 196q-7 -62 -43 -196z" />
<glyph unicode="&#x411;" horiz-adv-x="391" d="M110 651v-237h78q180 0 180 -196q0 -108 -52 -163t-135 -55h-126v686q0 14 13 14h261q0 -49 -10 -49h-209zM110 361v-310q62 -1 73 -1q54 0 88.5 40.5t34.5 135.5q0 138 -122 138z" />
<glyph unicode="&#x412;" horiz-adv-x="392" d="M55 0v683q0 17 25 17h100q167 0 167 -152q0 -79 -30 -117.5t-68 -44.5q19 -1 37 -7.5t38 -21t32.5 -45t12.5 -73.5q0 -57 -13 -101t-32.5 -69.5t-46.5 -41.5t-51 -21.5t-49 -5.5h-122zM110 651v-246h75q103 0 103 133q0 113 -107 113h-71zM110 357v-307h67q56 0 92.5 43 t36.5 141q0 42 -9 67.5t-29 37t-39.5 15t-51.5 3.5h-67z" />
<glyph unicode="&#x413;" horiz-adv-x="334" d="M99 0h-42v686q0 14 13 14h253q0 -49 -10 -49h-202v-638q0 -13 -12 -13z" />
<glyph unicode="&#x414;" horiz-adv-x="520" d="M427 700h-198q-52 0 -62.5 -2t-10.5 -12q-7 -276 -24.5 -412.5t-61.5 -221.5q-51 0 -51 -13v-194q36 0 41 14q9 27 13 141h349q4 -73 18 -155q38 0 38 13v194h-51v648zM373 52h-247q41 89 58.5 221t24.5 375h164v-596z" />
<glyph unicode="&#x415;" horiz-adv-x="337" d="M111 357v-306h197q0 -36 -1.5 -43.5t-10.5 -7.5h-239v686q0 14 13 14h239q0 -51 -10 -51h-188v-241h176q0 -34 -1.5 -42.5t-10.5 -8.5h-164z" />
<glyph unicode="&#x416;" horiz-adv-x="585" d="M76 697l189 -297v286q0 10 7 12t49 2v-300l189 297q14 3 37 3q25 0 15 -19l-187 -291q38 -27 71.5 -75.5t54 -98t35.5 -96t22 -75.5l6 -29q3 -17 -14 -17q-27 0 -40 1q-1 22 -13 68t-33.5 104t-59.5 110t-83 72v-341q0 -10 -7 -11.5t-49 -1.5v354q-45 -20 -83 -72 t-59.5 -109.5t-33 -103.5t-12.5 -69q-13 -1 -42 -1q-16 0 -13 17q2 11 6.5 30.5t21 72.5t36 98.5t53.5 95t72 76.5l-187 292q-10 19 14 19q25 0 38 -3z" />
<glyph unicode="&#x417;" horiz-adv-x="333" d="M79 341v42q152 4 152 163q0 56 -25.5 84t-71.5 28q-54 0 -95 -34q-11 15 -11 38q0 7 11.5 18t40 21t65.5 10q68 0 105.5 -39.5t37.5 -112.5q0 -124 -68 -173q-20 -15 -40 -16q23 -3 35 -8q12 -4 24 -12t29.5 -24.5t28.5 -48t11 -71.5q0 -112 -49 -164.5t-121 -52.5 q-48 0 -81.5 20.5t-33.5 44.5q0 20 12 44q36 -51 98 -51q50 0 83 37.5t33 118.5q0 136 -170 138z" />
<glyph unicode="&#x418;" horiz-adv-x="457" d="M229 281l-115 -266q-5 -11 -13 -13t-34 -2h-12v686q0 11 6.5 12.5t48.5 1.5v-388q0 -101 -8 -210q41 122 127 320l113 263q6 11 15.5 13t44.5 2v-687q0 -10 -7 -11.5t-48 -1.5v257q0 198 11 352q-59 -168 -129 -328z" />
<glyph unicode="&#x419;" horiz-adv-x="457" d="M150 920q32 -87 89 -87q23 0 41 13.5t25 26.5t17 36q8 14 23.5 5.5t17.5 -24.5q-35 -110 -125 -110q-49 0 -84 40t-35 70q0 21 31 30zM229 281l-115 -266q-5 -11 -13 -13t-34 -2h-12v686q0 11 6.5 12.5t48.5 1.5v-388q0 -101 -8 -210q41 122 127 320l113 263 q6 11 15.5 13t44.5 2v-687q0 -10 -7 -11.5t-48 -1.5v257q0 198 11 352q-59 -168 -129 -328z" />
<glyph unicode="&#x41a;" horiz-adv-x="391" d="M366 681l-201 -286q134 -86 203 -379q2 -10 -2.5 -13.5t-18.5 -3.5q-24 0 -36 1q-40 136 -75 210t-78 117q-19 20 -49 32v-346q0 -10 -7 -11.5t-48 -1.5v686q0 10 7 12t48 2v-305l201 302q13 3 35 3q33 0 21 -19z" />
<glyph unicode="&#x41b;" horiz-adv-x="480" d="M425 700h-211q-42 0 -49 -2t-7 -12q-8 -308 -28.5 -472t-66.5 -164q-29 0 -46 8q-10 -18 -10 -39q0 -24 65 -24q73 0 98 144.5t42 508.5h158v-648q41 0 48 1.5t7 11.5v687z" />
<glyph unicode="&#x41c;" horiz-adv-x="498" d="M283 346l105 340q5 14 14 14h42v-687q0 -10 -7 -11.5t-47 -1.5v289q1 49 9 283q-66 -226 -75 -251l-58 -170q-3 -9 -11 -9h-26l-56 179q-2 5 -15 49t-31 104t-29 95q1 -27 5.5 -141t5.5 -132v-283q0 -10 -7.5 -11.5t-46.5 -1.5v686q0 14 13 14h37l109 -351l35 -120 q28 96 34 117z" />
<glyph unicode="&#x41d;" d="M322 407v279q0 10 7 12t48 2v-687q0 -10 -7 -11.5t-48 -1.5v355h-212v-342q0 -10 -7 -11.5t-48 -1.5v686q0 10 7 12t48 2v-293h212z" />
<glyph unicode="&#x41e;" horiz-adv-x="446" d="M38 355q0 191 46.5 273t145.5 82q98 0 138 -78t40 -276q0 -200 -44.5 -283t-144.5 -83q-99 0 -140 79t-41 286zM99 338q0 -159 27.5 -225t94.5 -66q69 0 98.5 70.5t29.5 239.5q0 165 -27 231t-94 66t-98 -72.5t-31 -243.5z" />
<glyph unicode="&#x41f;" horiz-adv-x="425" d="M315 0v648h-205v-635q0 -10 -7 -11.5t-48 -1.5v686q0 10 7 12t48 2h260v-687q0 -10 -7 -11.5t-48 -1.5z" />
<glyph unicode="&#x420;" horiz-adv-x="370" d="M68 700h104q175 0 175 -190q0 -109 -48 -161.5t-131 -52.5h-59v-283q0 -10 -6.5 -11.5t-47.5 -1.5v686q0 14 13 14zM109 348h63q115 0 115 166q0 136 -110 136h-68v-302z" />
<glyph unicode="&#x421;" horiz-adv-x="354" d="M232 711q45 0 69 -16t24 -34q0 -21 -10 -34q-35 31 -75 31q-24 0 -42.5 -6.5t-38.5 -27.5t-33 -57t-21.5 -100t-8.5 -151q0 -82 9.5 -137.5t27.5 -82.5t37 -37t45 -10q31 0 60.5 13.5t43.5 30.5q9 -20 9 -35q0 -25 -36.5 -47t-87.5 -22q-29 0 -49 5t-44 24t-38.5 53 t-24.5 96.5t-10 149.5q0 73 6.5 132.5t16.5 100t25.5 70.5t32 47t37 27.5t38 13.5t38.5 3z" />
<glyph unicode="&#x422;" horiz-adv-x="367" d="M20 700h340v-39q0 -13 -13 -13h-138v-635q0 -10 -7 -11.5t-48 -1.5v648h-147v38q0 14 13 14z" />
<glyph unicode="&#x423;" horiz-adv-x="368" d="M65 700h-36q-20 0 -20 -12q0 -7 14 -53q106 -354 155 -506q-10 -81 -48 -81q-17 0 -43 12q-17 -21 -12 -42q7 -22 63 -22q16 0 28 4.5t22 17.5t15.5 21t13 33t10 34t9.5 41q3 11 4 17q15 65 61 265t63 271h-48q-17 -32 -31 -91l-36 -162q-19 -88 -48 -257q-3 14 -75 298z " />
<glyph unicode="&#x424;" horiz-adv-x="581" d="M318 62v-59q0 -10 -7 -11.5t-47 -1.5v70q-118 4 -174 82.5t-56 211.5q0 120 58.5 201t171.5 87v40q0 21 7 24.5t47 3.5v-67q116 -6 172.5 -84t56.5 -201q0 -126 -57 -208t-172 -88zM264 112v480q-88 -6 -131.5 -77.5t-43.5 -172.5q0 -94 42 -159.5t133 -70.5zM318 592 v-479q86 6 128.5 76t42.5 167q0 99 -40 165t-131 71z" />
<glyph unicode="&#x425;" horiz-adv-x="426" d="M252 363l162 -352q5 -11 -8 -11h-57l-68 150q-34 77 -70 166q-38 -93 -71 -165l-68 -144q-4 -7 -14 -7h-48l169 363l-142 327q-3 8 6 9q8 1 57 1l51 -121q43 -101 68 -169q39 100 68 169l48 111q3 8 10 9t52 1z" />
<glyph unicode="&#x426;" horiz-adv-x="448" d="M55 0v686q0 10 7 12t48 2v-648h205v634q0 10 7 12t47 2v-648h45v-191q0 -8 -5 -11.5t-11 -4t-21 -0.5q-13 76 -18 155h-304z" />
<glyph unicode="&#x427;" horiz-adv-x="389" d="M334 700v-687q0 -10 -7 -11.5t-47 -1.5v302q-54 -23 -108 -23q-149 0 -149 174v233q0 10 7 12t47 2v-231q0 -140 106 -140q47 0 97 26v331q0 10 7 12t47 2z" />
<glyph unicode="&#x428;" horiz-adv-x="583" d="M55 0v686q0 11 6.5 12.5t47.5 1.5v-648h156v634q0 11 6.5 12.5t46.5 1.5v-648h156v634q0 10 7 12t47 2v-671q0 -21 -11 -25t-58 -4h-404z" />
<glyph unicode="&#x429;" horiz-adv-x="607" d="M55 0v686q0 11 6.5 12.5t47.5 1.5v-648h156v634q0 11 6.5 12.5t46.5 1.5v-648h156v634q0 10 7 12t47 2v-648h45v-190q0 -10 -8.5 -13t-29.5 -3q-14 73 -18 154h-462z" />
<glyph unicode="&#x42a;" horiz-adv-x="486" d="M151 0v650h-133v32q0 18 16 18h172v-286h78q181 0 181 -196q0 -109 -52.5 -163.5t-135.5 -54.5h-126zM206 361v-310q63 -1 73 -1q55 0 89.5 40.5t34.5 135.5q0 138 -123 138z" />
<glyph unicode="&#x42b;" horiz-adv-x="542" d="M55 0v681q0 14 7 16.5t48 2.5v-286h78q178 0 178 -196q0 -109 -51.5 -163.5t-133.5 -54.5h-126zM431 0q2 170 2 350l-2 322q0 21 7.5 24.5t48.5 3.5q-1 -195 -1 -350l1 -337q0 -10 -7.5 -11.5t-48.5 -1.5zM110 361v-310q62 -1 72 -1q54 0 88 40.5t34 135.5 q0 72 -32.5 105t-87.5 33z" />
<glyph unicode="&#x42c;" horiz-adv-x="389" d="M55 0v681q0 14 7 16.5t48 2.5v-286h78q180 0 180 -196q0 -108 -52 -163t-135 -55h-126zM110 361v-310q62 -1 73 -1q54 0 88.5 40.5t34.5 135.5q0 138 -122 138z" />
<glyph unicode="&#x42d;" horiz-adv-x="360" d="M88 380h178q-2 76 -11.5 129.5t-21 81.5t-30.5 43.5t-33.5 19t-35.5 3.5q-53 0 -84 -31q-11 13 -11 33q0 17 29.5 33.5t79.5 16.5q29 0 50 -5.5t46.5 -27t42 -59.5t27.5 -108.5t11 -168.5q0 -90 -10.5 -156t-26.5 -102.5t-41 -58t-47.5 -27.5t-51.5 -6q-43 0 -78.5 20.5 t-35.5 41.5q0 18 10 43q15 -18 41.5 -31.5t56.5 -13.5q57 0 90.5 62t34.5 217h-167q-9 0 -10.5 8.5t-1.5 42.5z" />
<glyph unicode="&#x42e;" horiz-adv-x="595" d="M111 700v-321h82q3 177 48 254t138 77q97 0 137 -78t40 -276q0 -200 -43.5 -283t-141.5 -83q-95 0 -135.5 73.5t-42.5 264.5h-82v-315q0 -10 -7.5 -11.5t-48.5 -1.5v686q0 10 7.5 12t48.5 2zM251 338q0 -158 27.5 -225t92.5 -67q68 0 97 71t29 240q0 164 -27 230.5 t-91 66.5q-67 0 -97.5 -72.5t-30.5 -243.5z" />
<glyph unicode="&#x42f;" horiz-adv-x="389" d="M279 284h-69q-13 0 -19 1q-69 -85 -91 -270q-2 -9 -6 -12t-21 -4q-22 0 -34 1q7 110 37.5 187.5t60.5 111.5q-49 19 -76 74t-27 137q0 91 45 140.5t137 49.5h105q6 0 9 -3.5t4 -6.5v-4v-686q-41 0 -48 1.5t-7 11.5v271zM279 337v312q-1 0 -9.5 0.5t-24 0.5h-34.5 q-61 0 -89.5 -37t-28.5 -99q0 -81 27.5 -128t82.5 -49q13 -1 38 -1q7 0 20 0.5t18 0.5z" />
<glyph unicode="&#x430;" horiz-adv-x="367" d="M321 389v-60q0 -173 -5 -303q-59 -36 -136 -36q-25 0 -43 2t-38.5 10.5t-33 24.5t-21 44t-8.5 68q0 51 12 85t35 50t46.5 22t55.5 6q53 0 82 -12v88q0 46 -20 62.5t-59 16.5q-88 0 -144 -25q-8 16 -8 32q0 14 8 20q16 10 61 18t96 8q62 0 91 -27.5t29 -93.5zM267 249 q-27 10 -65 10q-52 0 -80.5 -23t-28.5 -95q0 -34 7 -56t22 -31.5t29 -12.5t37 -3q50 0 74 22q5 70 5 189z" />
<glyph unicode="&#x431;" horiz-adv-x="377" d="M150 674l141 56q12 -33 9 -46q-1 -9 -32 -22l-94 -38q-49 -19 -72.5 -82.5t-31.5 -168.5q43 137 144 137q143 0 143 -259q0 -261 -166 -261q-93 0 -129 70.5t-36 212.5v38q1 67 9 149q26 180 115 214zM200 454q-48 0 -83.5 -52t-35.5 -116q0 -133 26 -187.5t86 -54.5 q51 0 80 50.5t29 139.5q0 220 -102 220z" />
<glyph unicode="&#x432;" horiz-adv-x="384" d="M55 0v486q0 14 25 14h96q32 0 55.5 -4t47.5 -15.5t37 -36t13 -60.5q0 -56 -29.5 -87t-52.5 -35q21 -2 35 -8q68 -26 68 -97q0 -72 -46 -114.5t-131 -42.5h-118zM108 457v-179h63q45 0 73.5 23t28.5 74q0 29 -8.5 47t-27.5 25.5t-34 9t-43 1.5zM108 238v-194h65 q55 0 85.5 29.5t30.5 83.5q0 41 -23.5 61t-83.5 20h-74z" />
<glyph unicode="&#x433;" horiz-adv-x="299" d="M42 0v451q0 33 2 41t12 8h230q0 -34 -1.5 -41.5t-10.5 -7.5h-176v-438q0 -10 -6.5 -11.5t-49.5 -1.5z" />
<glyph unicode="&#x434;" horiz-adv-x="443" d="M10 38v-180q36 0 39 11q10 38 13 131h304q2 -69 16 -142q37 0 37 13v181h-48v448h-154q-84 0 -89 -4q-4 -3 -4 -10q0 -9 -1.5 -45t-2 -47.5t-2.5 -45t-3.5 -48.5l-4.5 -45t-6 -46.5t-7.5 -41.5t-10.5 -42.5t-13 -37t-16 -35.5q-41 -1 -45 -7q-2 -3 -2 -7zM315 451v-399 h-204q16 33 26.5 68t17 81.5t9.5 72.5t7 90t6 87h138z" />
<glyph unicode="&#x435;" horiz-adv-x="374" d="M210 44q72 0 121 34q6 -20 6 -39q0 -18 -41 -33.5t-94 -15.5q-39 0 -66 8.5t-51 32t-35.5 71.5t-11.5 121q0 74 11 128t27.5 84t41.5 47.5t47 22.5t51 5q126 0 126 -158q0 -70 -9 -120q-102 -20 -239 -17q1 -103 29 -137t87 -34zM212 460q-17 0 -31 -3.5t-30 -16 t-27 -33.5t-19 -58t-10 -88q126 -3 189 13q4 32 4 67q-1 63 -17 91t-59 28z" />
<glyph unicode="&#x436;" horiz-adv-x="536" d="M241 0v240q-41 -12 -78 -64t-54.5 -98t-24.5 -78q-42 -3 -47 1q-6 6 -3 18q6 22 18.5 54t32.5 73.5t48.5 77t58.5 50.5l-157 206q-12 20 12 20q31 0 37 -2l157 -218v177v36q3 7 54 7v-221l157 219q7 2 37 2q24 0 13 -20l-156 -206q55 -31 100.5 -115.5t58.5 -137.5 q2 -22 -17 -22q-25 0 -38 1q-5 32 -23.5 79.5t-55 97.5t-76.5 63v-228q0 -9 -8 -10.5t-46 -1.5z" />
<glyph unicode="&#x437;" horiz-adv-x="349" d="M104 234v40q20 0 41.5 5t44.5 17t37.5 36.5t14.5 57.5q0 70 -90 70q-60 0 -109 -36q-12 22 -12 34q0 10 13 21.5t43.5 21t70.5 9.5q67 0 103 -30t36 -88q0 -55 -38.5 -92t-77.5 -38q53 -2 93 -29.5t40 -87.5q0 -80 -48.5 -117.5t-116.5 -37.5q-50 0 -84 14.5t-34 31.5 q0 18 11 36q43 -32 102 -32q46 0 79.5 24t33.5 80q0 29 -13 48t-37 27.5t-47.5 11.5t-55.5 3z" />
<glyph unicode="&#x438;" horiz-adv-x="415" d="M209 302l101 184q4 10 12 12t39 2v-488q0 -9 -7.5 -10.5t-44.5 -1.5v184q0 5 2 51t4.5 103t3.5 80q-12 -23 -39 -75.5t-49.5 -95.5t-23.5 -46l-103 -187q-5 -10 -12 -12t-37 -2v488q0 9 8 10.5t43 1.5v-263q0 -7 -9 -151q9 18 37.5 72t50.5 97t24 47z" />
<glyph unicode="&#x439;" horiz-adv-x="415" d="M122 720q32 -87 89 -87q23 0 41 13.5t25 26.5t17 36q8 14 23.5 5.5t17.5 -24.5q-35 -110 -125 -110q-49 0 -84 40t-35 70q0 21 31 30zM209 302l101 184q4 10 12 12t39 2v-488q0 -9 -7.5 -10.5t-44.5 -1.5v184q0 5 2 51t4.5 103t3.5 80q-12 -23 -39 -75.5t-49.5 -95.5 t-23.5 -46l-103 -187q-5 -10 -12 -12t-37 -2v488q0 9 8 10.5t43 1.5v-263q0 -7 -9 -151q9 18 37.5 72t50.5 97t24 47z" />
<glyph unicode="&#x43a;" horiz-adv-x="369" d="M57 0v488q0 9 8 10.5t47 1.5v-221l170 219q7 2 38 2q24 0 13 -20l-169 -206q72 -46 122 -134t51 -124q1 -10 -3 -13.5t-15 -3.5q-6 0 -19.5 0.5t-17.5 0.5q-12 48 -63.5 131.5t-106.5 109.5v-194q0 -27 -2 -40q-2 -7 -53 -7z" />
<glyph unicode="&#x43b;" horiz-adv-x="437" d="M324 451h-142q-16 -288 -35 -364q-23 -91 -84 -91q-53 0 -53 25q0 19 9 35q20 -10 36 -10q34 0 46 64q21 111 30 376q0 11 8.5 12.5t56.5 1.5h27h158v-487q0 -10 -7 -11.5t-50 -1.5v451z" />
<glyph unicode="&#x43c;" horiz-adv-x="495" d="M55 0v491q0 10 14 10h37l110 -251l33 -82q36 94 44 112l91 211q2 10 14 10h41v-492q0 -7 -6 -8t-48 -1l2 184q0 11 5 88.5t6 142.5q-4 -8 -10 -22.5t-13 -31.5t-15 -35.5t-15 -35.5t-12.5 -31t-8.5 -22l-4 -8l-55 -117q-1 -6 -11 -6h-25l-54 123q-1 2 -15 35.5 t-32.5 76.5t-29.5 67h-1q0 -43 2.5 -89.5t5 -82.5t2.5 -46v-181q0 -7 -6 -8t-46 -1z" />
<glyph unicode="&#x43d;" horiz-adv-x="411" d="M355 500v-487q0 -10 -7 -11.5t-49 -1.5v225h-188v-212q0 -10 -6.5 -11.5t-48.5 -1.5v486q0 11 6.5 12.5t48.5 1.5v-226h188v212q0 10 7 12t49 2z" />
<glyph unicode="&#x43e;" horiz-adv-x="387" d="M33 249q0 261 167 261q81 0 117.5 -56t36.5 -204q0 -260 -165 -260q-41 0 -66.5 9t-47.5 35.5t-32 79t-10 135.5zM92 245q0 -123 23.5 -165t75.5 -42q105 0 105 214q0 122 -23.5 165.5t-74.5 43.5q-52 0 -79 -48.5t-27 -167.5z" />
<glyph unicode="&#x43f;" horiz-adv-x="410" d="M355 500v-487q0 -10 -7 -11.5t-50 -1.5v451h-187v-438q0 -10 -6.5 -11.5t-48.5 -1.5v486q0 11 6.5 12.5t48.5 1.5h244z" />
<glyph unicode="&#x440;" horiz-adv-x="399" d="M57 -174v644q65 40 144 40q82 0 123.5 -47t41.5 -164q0 -78 -11 -136t-28 -90t-40 -51.5t-43 -25.5t-42 -6q-62 0 -90 36v-219q-18 -4 -29 -4q-26 0 -26 23zM112 436v-350q27 -46 75 -46q119 3 119 248q0 100 -25.5 136.5t-82.5 36.5q-48 0 -86 -25z" />
<glyph unicode="&#x441;" horiz-adv-x="331" d="M304 470q0 -17 -8 -33q-33 23 -77 23q-24 0 -43 -7.5t-38.5 -28.5t-30.5 -68.5t-11 -119.5q0 -115 26.5 -155.5t82.5 -40.5t92 30q7 -21 7 -32q0 -18 -33 -33t-82 -15q-37 0 -61.5 9t-46 34.5t-32 76.5t-10.5 129q0 69 11.5 120t28.5 79.5t42.5 45t48 21.5t50.5 5 q34 0 59 -12t25 -28z" />
<glyph unicode="&#x442;" horiz-adv-x="351" d="M311 450h-108v-437q0 -10 -6.5 -11.5t-47.5 -1.5v450h-123q0 34 2 42t12 8h285q0 -34 -2 -42t-12 -8z" />
<glyph unicode="&#x443;" horiz-adv-x="370" d="M163 -16l-130 499q-3 13 4 15t49 2l75 -294q8 -32 15 -71t10 -62l4 -23q11 82 27 157l67 276q2 13 9.5 15t49.5 2l-132 -531q-22 -89 -54 -125.5t-83 -36.5q-73 0 -73 30q0 18 10 32q26 -13 61 -13q63 0 91 128z" />
<glyph unicode="&#x444;" horiz-adv-x="563" d="M254 484v207q0 19 8.5 23t44.5 4v-234q40 25 87 25q138 0 138 -225q0 -71 -11.5 -125.5t-28 -84.5t-38.5 -49.5t-39.5 -25.5t-33.5 -6q-42 0 -74 27v-214q-13 -5 -33 -5q-13 0 -16.5 4.5t-3.5 17.5v197q-33 -27 -73 -27q-66 0 -107.5 61.5t-41.5 171.5q0 283 141 283 q44 0 81 -25zM254 70v365q-33 21 -66 21q-98 0 -98 -218q0 -92 27 -141.5t73 -49.5q36 0 64 23zM307 435v-364q26 -23 62 -23q11 0 22 4t26.5 18t27 37t19.5 66t8 100q0 183 -91 183q-41 0 -74 -21z" />
<glyph unicode="&#x445;" horiz-adv-x="437" d="M255 266l156 -252q7 -10 -1 -12l-59 -2l-52 80q-35 57 -83 144q-56 -99 -84 -145l-45 -68q-4 -8 -13.5 -9.5t-51.5 -1.5l162 262l-139 228q-3 7 5 9l53 1l51 -80q13 -21 69 -119q20 37 69 121l45 68q4 8 11.5 9t51.5 1z" />
<glyph unicode="&#x446;" horiz-adv-x="428" d="M340 0h-284v486q0 11 7 12.5t49 1.5v-449h187v435q0 10 7 12t49 2v-449h39v-180q0 -13 -38 -13q-10 55 -16 142z" />
<glyph unicode="&#x447;" horiz-adv-x="386" d="M330 500v-487q0 -10 -7 -11.5t-50 -1.5v203q-60 -24 -114 -24q-64 0 -94 40t-30 100v167q0 11 6.5 12.5t48.5 1.5v-170q0 -103 78 -103q48 0 105 24v235q0 10 7.5 12t49.5 2z" />
<glyph unicode="&#x448;" horiz-adv-x="591" d="M535 500v-487q0 -10 -6.5 -11.5t-49.5 -1.5h-423v486q0 11 6.5 12.5t48.5 1.5v-449h156v435q0 10 7 12t48 2v-449h156v435q0 10 7 12t50 2z" />
<glyph unicode="&#x449;" horiz-adv-x="608" d="M520 0h-464v486q0 11 6.5 12.5t48.5 1.5v-449h156v435q0 10 7 12t48 2v-449h156v435q0 10 7 12t50 2v-449h38v-180q0 -13 -37 -13q-14 73 -16 142z" />
<glyph unicode="&#x44a;" horiz-adv-x="466" d="M196 295h74q81 0 123 -29t42 -114q0 -152 -171 -152h-121v450h-126v9q0 28 1.5 34.5t9.5 6.5h168v-205zM196 251v-207h65q55 0 84.5 22.5t29.5 84.5q0 63 -28 82t-90 19q-11 0 -31.5 -0.5t-29.5 -0.5z" />
<glyph unicode="&#x44b;" horiz-adv-x="520" d="M108 500v-205h73q79 0 120 -27t41 -103q0 -165 -167 -165h-120v473q0 19 8 23t45 4zM463 500v-487q0 -10 -6.5 -11.5t-48.5 -1.5v473q0 19 10 23t45 4zM108 251v-207h64q55 0 82.5 24.5t27.5 95.5q0 55 -27 71.5t-87 16.5z" />
<glyph unicode="&#x44c;" horiz-adv-x="378" d="M108 500v-205h73q81 0 123.5 -27t42.5 -103q0 -44 -12.5 -76.5t-30.5 -49t-45.5 -26t-48 -11.5t-47.5 -2h-108v439q0 27 3 49q1 8 11.5 10t38.5 2zM108 251v-207h65q56 0 85.5 24.5t29.5 95.5q0 55 -29 71.5t-90 16.5z" />
<glyph unicode="&#x44d;" horiz-adv-x="326" d="M88 274h151q-1 61 -11.5 101t-28.5 57.5t-34 23.5t-37 6q-50 0 -91 -27q-8 16 -8 40q0 11 32 24t72 13q24 0 43 -3.5t42.5 -18t39 -40t26.5 -73t11 -113.5q0 -112 -20 -173.5t-53 -82t-89 -20.5q-38 0 -69.5 15.5t-31.5 30.5q0 18 7 35q43 -31 89 -31q54 0 80.5 40.5 t29.5 146.5h-164q0 33 2 41t12 8z" />
<glyph unicode="&#x44e;" horiz-adv-x="538" d="M111 274h80q7 237 162 237q80 0 117 -56.5t37 -204.5q0 -263 -159 -263q-53 0 -84 16t-51 69.5t-22 152.5h-80v-212q0 -10 -6.5 -11.5t-48.5 -1.5v486q0 11 6.5 12.5t48.5 1.5v-226zM247 245q0 -122 24 -166t75 -44q102 0 102 217q0 123 -23 166.5t-73 43.5t-77.5 -49 t-27.5 -168z" />
<glyph unicode="&#x44f;" horiz-adv-x="372" d="M263 210h-95q-55 -62 -69 -195q-4 -17 -22 -17q-24 0 -36 2q3 82 27 140t53 87q-37 12 -60.5 43.5t-23.5 83.5q0 146 164 146h116v-482q0 -14 -6.5 -16t-47.5 -2v210zM264 256v198q-1 0 -12.5 0.5t-29 1t-32.5 0.5q-96 0 -96 -101q0 -51 24.5 -75t62.5 -24h83z" />
<glyph unicode="&#x451;" horiz-adv-x="374" d="M100 649q0 17 10.5 29t28.5 12q19 0 29.5 -11.5t10.5 -29.5t-11 -29.5t-29 -11.5q-39 0 -39 41zM241 649q0 17 10.5 29t28.5 12q19 0 29.5 -11.5t10.5 -29.5t-11 -29.5t-29 -11.5q-39 0 -39 41zM210 44q72 0 121 34q6 -20 6 -39q0 -18 -41 -33.5t-94 -15.5q-39 0 -66 8.5 t-51 32t-35.5 71.5t-11.5 121q0 74 11 128t27.5 84t41.5 47.5t47 22.5t51 5q126 0 126 -158q0 -70 -9 -120q-102 -20 -239 -17q1 -103 29 -137t87 -34zM212 460q-17 0 -31 -3.5t-30 -16t-27 -33.5t-19 -58t-10 -88q126 -3 189 13q4 32 4 67q-1 63 -17 91t-59 28z" />
<glyph unicode="&#x49a;" horiz-adv-x="404" d="M358 55h50v-194q0 -10 -8 -12.5t-30 -2.5q-15 81 -17 153h-6q-24 0 -36 1q-40 136 -75 210t-78 117q-19 20 -49 32v-346q0 -10 -7 -11.5t-48 -1.5v686q0 10 7 12t48 2v-305l201 302q13 3 35 3q33 0 21 -19l-201 -286q125 -80 193 -340z" />
<glyph unicode="&#x49b;" horiz-adv-x="376" d="M327 55h48v-194q0 -10 -7.5 -12.5t-29.5 -2.5q-13 64 -18 153h-1q-6 0 -19.5 0.5t-17.5 0.5q-12 48 -63.5 131.5t-106.5 109.5v-194q0 -27 -2 -40q-2 -7 -53 -7v488q0 9 8 10.5t47 1.5v-221l170 219q7 2 38 2q24 0 13 -20l-169 -206q57 -36 99.5 -99t63.5 -120z" />
<glyph unicode="&#x4a2;" horiz-adv-x="448" d="M377 55h46v-194q0 -10 -8 -12.5t-30 -2.5q-15 73 -17 154h-21h-25v355h-212v-342q0 -10 -7 -11.5t-48 -1.5v686q0 10 7 12t48 2v-293h212v279q0 10 7 12t48 2v-645z" />
<glyph unicode="&#x4a3;" horiz-adv-x="424" d="M355 55h45v-194q0 -10 -8 -12.5t-30 -2.5q-13 66 -18 154h-21h-24v225h-188v-212q0 -10 -6.5 -11.5t-48.5 -1.5v486q0 11 6.5 12.5t48.5 1.5v-226h188v212q0 10 7 12t49 2v-445z" />
<glyph unicode="&#x2000;" horiz-adv-x="460" />
<glyph unicode="&#x2001;" horiz-adv-x="920" />
<glyph unicode="&#x2002;" horiz-adv-x="460" />
<glyph unicode="&#x2003;" horiz-adv-x="920" />
<glyph unicode="&#x2004;" horiz-adv-x="306" />
<glyph unicode="&#x2005;" horiz-adv-x="230" />
<glyph unicode="&#x2006;" horiz-adv-x="153" />
<glyph unicode="&#x2007;" horiz-adv-x="153" />
<glyph unicode="&#x2008;" horiz-adv-x="115" />
<glyph unicode="&#x2009;" horiz-adv-x="184" />
<glyph unicode="&#x200a;" horiz-adv-x="51" />
<glyph unicode="&#x2010;" horiz-adv-x="290" d="M233 257h-190v24t1.5 14.5t4 9.5t7.5 2h191q0 -31 -2 -40.5t-12 -9.5z" />
<glyph unicode="&#x2011;" horiz-adv-x="290" d="M233 257h-190v24t1.5 14.5t4 9.5t7.5 2h191q0 -31 -2 -40.5t-12 -9.5z" />
<glyph unicode="&#x2012;" horiz-adv-x="290" d="M233 257h-190v24t1.5 14.5t4 9.5t7.5 2h191q0 -31 -2 -40.5t-12 -9.5z" />
<glyph unicode="&#x2013;" horiz-adv-x="436" d="M379 257h-336v24t1.5 14.5t4 9.5t7.5 2h337q0 -31 -2 -40.5t-12 -9.5z" />
<glyph unicode="&#x2014;" horiz-adv-x="700" d="M680 257h-674v24t1.5 14.5t4 9.5t7.5 2h675q0 -31 -2 -40.5t-12 -9.5z" />
<glyph unicode="&#x2018;" horiz-adv-x="159" d="M118 620q0 -18 -11 -29.5t-28 -11.5q-42 0 -42 48q0 45 24 104.5t37 59.5q20 0 23 -18q-21 -42 -23 -113q20 -12 20 -40z" />
<glyph unicode="&#x2019;" horiz-adv-x="159" d="M41 745q0 18 11 29.5t29 11.5q41 0 41 -48q0 -45 -24 -104.5t-37 -59.5q-19 0 -23 18q21 43 23 113q-20 12 -20 40z" />
<glyph unicode="&#x201a;" horiz-adv-x="157" d="M41 59q0 18 11 29.5t29 11.5q41 0 41 -48q0 -44 -24 -104t-37 -60q-19 0 -23 18q21 44 23 113q-20 12 -20 40z" />
<glyph unicode="&#x201c;" horiz-adv-x="298" d="M118 620q0 -18 -11 -29.5t-28 -11.5q-42 0 -42 48q0 45 24 104.5t37 59.5q20 0 23 -18q-21 -42 -23 -113q20 -12 20 -40zM256 620q0 -18 -10.5 -29.5t-28.5 -11.5q-41 0 -41 48q0 45 23.5 104.5t37.5 59.5q19 0 23 -18q-21 -42 -23 -113q19 -12 19 -40z" />
<glyph unicode="&#x201d;" horiz-adv-x="298" d="M41 745q0 18 11 29.5t29 11.5q41 0 41 -48q0 -45 -24 -104.5t-37 -59.5q-19 0 -23 18q21 43 23 113q-20 12 -20 40zM180 745q0 17 11 29t28 12q41 0 41 -48q0 -45 -23.5 -104.5t-36.5 -59.5q-20 0 -24 18q22 42 24 113q-20 12 -20 40z" />
<glyph unicode="&#x201e;" horiz-adv-x="296" d="M41 59q0 18 11 29.5t29 11.5q41 0 41 -48q0 -44 -24 -104t-37 -60q-19 0 -23 18q21 44 23 113q-20 12 -20 40zM180 59q0 18 11 29.5t28 11.5q41 0 41 -48q0 -44 -23.5 -104t-36.5 -60q-20 0 -24 18q22 43 24 113q-20 12 -20 40z" />
<glyph unicode="&#x2026;" horiz-adv-x="488" d="M44 40q0 19 11.5 32t30.5 13q44 0 44 -45q0 -19 -12 -32t-32 -13q-42 0 -42 45zM201 40q0 19 11.5 32t30.5 13q44 0 44 -45q0 -19 -12 -32t-32 -13q-42 0 -42 45zM358 40q0 19 11.5 32t30.5 13q44 0 44 -45q0 -19 -12 -32t-32 -13q-42 0 -42 45z" />
<glyph unicode="&#x202f;" horiz-adv-x="184" />
<glyph unicode="&#x2039;" horiz-adv-x="256" d="M28 250q0 12 37 74.5t75 119.5l37 56q9 0 17.5 -7t11.5 -14l4 -7q0 -12 -32 -67.5t-64 -104.5l-33 -50q133 -193 133 -216q-13 -34 -32 -34q-154 222 -154 250z" />
<glyph unicode="&#x203a;" horiz-adv-x="256" d="M228 250q0 -12 -38 -74.5t-76 -119.5l-39 -56q-4 1 -9 3t-14 10.5t-9 19.5t33 65t66 103l34 49q-130 195 -130 222q0 9 8.5 16t17.5 10l8 2q148 -224 148 -250z" />
<glyph unicode="&#x205f;" horiz-adv-x="230" />
<glyph unicode="&#x20ac;" d="M281 210h-110q4 -54 15 -89t29 -51t35.5 -21t41.5 -5q61 0 97 36q9 -18 9 -37q0 -15 -35.5 -34t-79.5 -19q-36 0 -61.5 7.5t-50 29t-39.5 67.5t-19 116h-91q0 27 4.5 36.5t18.5 9.5h66v14q0 46 3 83h-92q0 27 4.5 36.5t18.5 9.5h74q10 64 29.5 107.5t46.5 64t52 28 t56 7.5q30 0 53 -8t32.5 -16.5t9.5 -14.5q0 -26 -11 -37q-8 7 -29.5 15.5t-43.5 8.5t-39.5 -5t-38 -20t-35.5 -48t-23 -82h163q0 -27 -4.5 -36.5t-18.5 -9.5h-146q-3 -37 -3 -83v-14h135q0 -27 -4.5 -36.5t-18.5 -9.5z" />
<glyph unicode="&#x2122;" horiz-adv-x="530" d="M34 668v22l10 10h202v-22l-9 -10h-76v-276q0 -7 -4.5 -8t-29.5 -1v285h-93zM395 560l48 130q3 10 10 10h24v-307q0 -7 -4 -8.5t-29 -1.5v114q0 15 3 117q-23 -68 -27 -77l-33 -86q-2 -5 -5 -5h-21l-35 91q-2 9 -27 75q4 -94 5 -116v-103q0 -7 -4.5 -8.5t-29.5 -1.5v307 q0 10 10 10h21l50 -139l24 -61q17 50 20 60z" />
<glyph unicode="&#x25fc;" horiz-adv-x="500" d="M0 500h500v-500h-500v500z" />
</font>
</defs>
</svg>
